<svg width="34" height="34" viewBox="0 0 34 34" fill="none" xmlns="http://www.w3.org/2000/svg">
<path d="M11.9783 11H8C4.68629 11 2 13.6863 2 17V18.5C2 21.8137 4.68629 24.5 8 24.5H13.0147C14.606 24.5 16.1321 23.8679 17.2574 22.7426L24.3043 15.6957" stroke="#6F72CE" stroke-width="1.6" stroke-linecap="round" stroke-linejoin="round"/>
<path d="M22.5374 24.5H26.5156C29.8293 24.5 32.5156 21.8137 32.5156 18.5V17C32.5156 13.6863 29.8293 11 26.5156 11H21.5009C19.9096 11 18.3835 11.6321 17.2583 12.7574L10.2113 19.8043" stroke="#6F72CE" stroke-width="1.6" stroke-linecap="round" stroke-linejoin="round"/>
<path d="M9.98438 16.2812V19.803H14.0931" stroke="#6F72CE" stroke-width="1.6" stroke-linecap="round" stroke-linejoin="round"/>
<path d="M25.2344 18.6328V15.1111H21.1257" stroke="#6F72CE" stroke-width="1.6" stroke-linecap="round" stroke-linejoin="round"/>
</svg>
