<svg width="34" height="34" viewBox="0 0 34 34" fill="none" xmlns="http://www.w3.org/2000/svg">
<path d="M4 20.8537V24.0019C4 27.3156 6.68629 30.0019 10 30.0019H13.1481M29.037 15.5574V10.9648C29.037 7.65114 26.3507 4.96484 23.037 4.96484H17.4815" stroke="#6F72CE" stroke-width="1.6" stroke-linecap="round" stroke-linejoin="round"/>
<path d="M5.83594 5.45899C5.83594 4.10093 6.93687 3 8.29493 3C9.653 3 10.7539 4.10093 10.7539 5.45899V6.07375C10.7539 7.43181 9.653 8.53274 8.29493 8.53274C6.93687 8.53274 5.83594 7.43181 5.83594 6.07374V5.45899Z" stroke="#6F72CE" stroke-width="1.6" stroke-linecap="round" stroke-linejoin="round"/>
<path d="M13.5926 15.8158C13.5926 12.8908 11.2214 10.5195 8.2963 10.5195C5.37123 10.5195 3 12.8908 3 15.8158V16" stroke="#6F72CE" stroke-width="1.6" stroke-linecap="round" stroke-linejoin="round"/>
<path d="M22.8359 21.459C22.8359 20.1009 23.9369 19 25.2949 19C26.653 19 27.7539 20.1009 27.7539 21.459V22.0737C27.7539 23.4318 26.653 24.5327 25.2949 24.5327C23.9369 24.5327 22.8359 23.4318 22.8359 22.0737V21.459Z" stroke="#6F72CE" stroke-width="1.6" stroke-linecap="round" stroke-linejoin="round"/>
<path d="M30.5926 31.8158C30.5926 28.8908 28.2214 26.5195 25.2963 26.5195C22.3712 26.5195 20 28.8908 20 31.8158V32.0001" stroke="#6F72CE" stroke-width="1.6" stroke-linecap="round" stroke-linejoin="round"/>
</svg>
